<?xml version="1.0" encoding="UTF-8" standalone="no"?>
<svg width="18px" height="15px" viewBox="0 0 18 15" version="1.1" xmlns="http://www.w3.org/2000/svg" xmlns:xlink="http://www.w3.org/1999/xlink">
    <!-- Generator: Sketch 3.8.3 (29802) - http://www.bohemiancoding.com/sketch -->
    <title>Group</title>
    <desc>Created with Sketch.</desc>
    <defs></defs>
    <g id="Page-1" stroke="none" stroke-width="1" fill="none" fill-rule="evenodd">
        <g id="Home" transform="translate(-215.000000, -17.000000)" fill="#222D32">
            <g id="topbar" transform="translate(0.000000, -1.000000)">
                <g id="menu" transform="translate(215.000000, 18.000000)">
                    <g id="Group">
                        <path d="M18,0.75 C18,0.3 17.7,0 17.25,0 L0.75,0 C0.3,0 0,0.3 0,0.75 L0,2.25 C0,2.7 0.3,3 0.75,3 L17.25,3 C17.7,3 18,2.7 18,2.25 L18,0.75 L18,0.75 Z" id="Shape"></path>
                        <path d="M18,6.75 C18,6.3 17.7,6 17.25,6 L0.75,6 C0.3,6 0,6.3 0,6.75 L0,8.25 C0,8.7 0.3,9 0.75,9 L17.25,9 C17.7,9 18,8.7 18,8.25 L18,6.75 L18,6.75 Z" id="Shape"></path>
                        <path d="M18,12.75 C18,12.3 17.7,12 17.25,12 L0.75,12 C0.3,12 0,12.3 0,12.75 L0,14.25 C0,14.7 0.3,15 0.75,15 L17.25,15 C17.7,15 18,14.7 18,14.25 L18,12.75 L18,12.75 Z" id="Shape"></path>
                    </g>
                </g>
            </g>
        </g>
    </g>
</svg>